<?xml version="1.0" encoding="UTF-8" standalone="no"?>
<!DOCTYPE svg PUBLIC "-//W3C//DTD SVG 1.1//EN"
 "http://www.w3.org/Graphics/SVG/1.1/DTD/svg11.dtd">
<!-- Generated by graphviz version 2.26.3 (20100126.1600)
 -->
<!-- Title: controllers_diagram Pages: 1 -->
<svg width="737pt" height="781pt"
 viewBox="0.00 0.00 737.00 781.00" xmlns="http://www.w3.org/2000/svg" xmlns:xlink="http://www.w3.org/1999/xlink">
<g id="graph1" class="graph" transform="scale(1 1) rotate(0) translate(4 777)">
<title>controllers_diagram</title>
<polygon fill="white" stroke="white" points="-4,5 -4,-777 734,-777 734,5 -4,5"/>
<!-- _diagram_info -->
<g id="node1" class="node"><title>_diagram_info</title>
<text text-anchor="start" x="49" y="-98.3" font-family="Times Roman,serif" font-size="13.00">Controllers diagram</text>
<text text-anchor="start" x="49" y="-81.3" font-family="Times Roman,serif" font-size="13.00">Date: Oct 16 2011 &#45; 06:53</text>
<text text-anchor="start" x="49" y="-64.3" font-family="Times Roman,serif" font-size="13.00">Migration version: 20111013013231</text>
<text text-anchor="start" x="49" y="-47.3" font-family="Times Roman,serif" font-size="13.00">Generated by RailRoady 1.0.2</text>
<text text-anchor="start" x="49" y="-30.3" font-family="Times Roman,serif" font-size="13.00">http://railroady.prestonlee.com</text>
</g>
<!-- AddressesController -->
<g id="node2" class="node"><title>AddressesController</title>
<polyline fill="none" stroke="black" points="213,-161.5 427,-161.5 "/>
<path fill="none" stroke="black" d="M427,-161.5C433,-161.5 439,-167.5 439,-173.5"/>
<polyline fill="none" stroke="black" points="439,-173.5 439,-413.5 "/>
<path fill="none" stroke="black" d="M439,-413.5C439,-419.5 433,-425.5 427,-425.5"/>
<polyline fill="none" stroke="black" points="427,-425.5 213,-425.5 "/>
<path fill="none" stroke="black" d="M213,-425.5C207,-425.5 201,-419.5 201,-413.5"/>
<polyline fill="none" stroke="black" points="201,-413.5 201,-173.5 "/>
<path fill="none" stroke="black" d="M201,-173.5C201,-167.5 207,-161.5 213,-161.5"/>
<text text-anchor="middle" x="320" y="-408.9" font-family="Times Roman,serif" font-size="14.00">AddressesController</text>
<polyline fill="none" stroke="black" points="201,-399.5 439,-399.5 "/>
<text text-anchor="start" x="209" y="-382.9" font-family="Times Roman,serif" font-size="14.00">_one_time_conditions_valid_50?</text>
<text text-anchor="start" x="209" y="-364.9" font-family="Times Roman,serif" font-size="14.00">create</text>
<text text-anchor="start" x="209" y="-346.9" font-family="Times Roman,serif" font-size="14.00">destroy</text>
<text text-anchor="start" x="209" y="-328.9" font-family="Times Roman,serif" font-size="14.00">edit</text>
<text text-anchor="start" x="209" y="-310.9" font-family="Times Roman,serif" font-size="14.00">index</text>
<text text-anchor="start" x="209" y="-292.9" font-family="Times Roman,serif" font-size="14.00">new</text>
<text text-anchor="start" x="209" y="-274.9" font-family="Times Roman,serif" font-size="14.00">show</text>
<text text-anchor="start" x="209" y="-256.9" font-family="Times Roman,serif" font-size="14.00">update</text>
<polyline fill="none" stroke="black" points="201,-247.5 439,-247.5 "/>
<polyline fill="none" stroke="black" points="201,-223.5 439,-223.5 "/>
<text text-anchor="start" x="209" y="-206.9" font-family="Times Roman,serif" font-size="14.00">_layout</text>
<text text-anchor="start" x="209" y="-188.9" font-family="Times Roman,serif" font-size="14.00">_run_process_action_callbacks</text>
<text text-anchor="start" x="209" y="-170.9" font-family="Times Roman,serif" font-size="14.00">parse_dates</text>
</g>
<!-- ApplicationController -->
<g id="node3" class="node"><title>ApplicationController</title>
<polyline fill="none" stroke="black" points="493,-361.5 707,-361.5 "/>
<path fill="none" stroke="black" d="M707,-361.5C713,-361.5 719,-367.5 719,-373.5"/>
<polyline fill="none" stroke="black" points="719,-373.5 719,-505.5 "/>
<path fill="none" stroke="black" d="M719,-505.5C719,-511.5 713,-517.5 707,-517.5"/>
<polyline fill="none" stroke="black" points="707,-517.5 493,-517.5 "/>
<path fill="none" stroke="black" d="M493,-517.5C487,-517.5 481,-511.5 481,-505.5"/>
<polyline fill="none" stroke="black" points="481,-505.5 481,-373.5 "/>
<path fill="none" stroke="black" d="M481,-373.5C481,-367.5 487,-361.5 493,-361.5"/>
<text text-anchor="middle" x="600" y="-500.9" font-family="Times Roman,serif" font-size="14.00">ApplicationController</text>
<polyline fill="none" stroke="black" points="481,-491.5 719,-491.5 "/>
<text text-anchor="start" x="489" y="-474.9" font-family="Times Roman,serif" font-size="14.00">_one_time_conditions_valid_14?</text>
<text text-anchor="start" x="489" y="-456.9" font-family="Times Roman,serif" font-size="14.00">_one_time_conditions_valid_16?</text>
<text text-anchor="start" x="489" y="-438.9" font-family="Times Roman,serif" font-size="14.00">not_authenticated</text>
<polyline fill="none" stroke="black" points="481,-429.5 719,-429.5 "/>
<polyline fill="none" stroke="black" points="481,-405.5 719,-405.5 "/>
<text text-anchor="start" x="489" y="-388.9" font-family="Times Roman,serif" font-size="14.00">_layout</text>
<text text-anchor="start" x="489" y="-370.9" font-family="Times Roman,serif" font-size="14.00">_run_process_action_callbacks</text>
</g>
<!-- SearchController -->
<g id="node4" class="node"><title>SearchController</title>
<polyline fill="none" stroke="black" points="553,-1.5 662,-1.5 "/>
<path fill="none" stroke="black" d="M662,-1.5C668,-1.5 674,-7.5 674,-13.5"/>
<polyline fill="none" stroke="black" points="674,-13.5 674,-91.5 "/>
<path fill="none" stroke="black" d="M674,-91.5C674,-97.5 668,-103.5 662,-103.5"/>
<polyline fill="none" stroke="black" points="662,-103.5 553,-103.5 "/>
<path fill="none" stroke="black" d="M553,-103.5C547,-103.5 541,-97.5 541,-91.5"/>
<polyline fill="none" stroke="black" points="541,-91.5 541,-13.5 "/>
<path fill="none" stroke="black" d="M541,-13.5C541,-7.5 547,-1.5 553,-1.5"/>
<text text-anchor="middle" x="607.5" y="-86.9" font-family="Times Roman,serif" font-size="14.00">SearchController</text>
<polyline fill="none" stroke="black" points="541,-77.5 674,-77.5 "/>
<text text-anchor="start" x="549" y="-60.9" font-family="Times Roman,serif" font-size="14.00">show</text>
<polyline fill="none" stroke="black" points="541,-51.5 674,-51.5 "/>
<polyline fill="none" stroke="black" points="541,-27.5 674,-27.5 "/>
<text text-anchor="start" x="549" y="-10.9" font-family="Times Roman,serif" font-size="14.00">_layout</text>
</g>
<!-- CallsForServiceController -->
<g id="node5" class="node"><title>CallsForServiceController</title>
<polyline fill="none" stroke="black" points="333,-1.5 499,-1.5 "/>
<path fill="none" stroke="black" d="M499,-1.5C505,-1.5 511,-7.5 511,-13.5"/>
<polyline fill="none" stroke="black" points="511,-13.5 511,-89.5 "/>
<path fill="none" stroke="black" d="M511,-89.5C511,-95.5 505,-101.5 499,-101.5"/>
<polyline fill="none" stroke="black" points="499,-101.5 333,-101.5 "/>
<path fill="none" stroke="black" d="M333,-101.5C327,-101.5 321,-95.5 321,-89.5"/>
<polyline fill="none" stroke="black" points="321,-89.5 321,-13.5 "/>
<path fill="none" stroke="black" d="M321,-13.5C321,-7.5 327,-1.5 333,-1.5"/>
<text text-anchor="middle" x="416" y="-84.9" font-family="Times Roman,serif" font-size="14.00">CallsForServiceController</text>
<polyline fill="none" stroke="black" points="321,-75.5 511,-75.5 "/>
<polyline fill="none" stroke="black" points="321,-51.5 511,-51.5 "/>
<polyline fill="none" stroke="black" points="321,-27.5 511,-27.5 "/>
<text text-anchor="start" x="329" y="-10.9" font-family="Times Roman,serif" font-size="14.00">_layout</text>
</g>
<!-- UsersController -->
<g id="node6" class="node"><title>UsersController</title>
<polyline fill="none" stroke="black" points="213,-461.5 427,-461.5 "/>
<path fill="none" stroke="black" d="M427,-461.5C433,-461.5 439,-467.5 439,-473.5"/>
<polyline fill="none" stroke="black" points="439,-473.5 439,-605.5 "/>
<path fill="none" stroke="black" d="M439,-605.5C439,-611.5 433,-617.5 427,-617.5"/>
<polyline fill="none" stroke="black" points="427,-617.5 213,-617.5 "/>
<path fill="none" stroke="black" d="M213,-617.5C207,-617.5 201,-611.5 201,-605.5"/>
<polyline fill="none" stroke="black" points="201,-605.5 201,-473.5 "/>
<path fill="none" stroke="black" d="M201,-473.5C201,-467.5 207,-461.5 213,-461.5"/>
<text text-anchor="middle" x="320" y="-600.9" font-family="Times Roman,serif" font-size="14.00">UsersController</text>
<polyline fill="none" stroke="black" points="201,-591.5 439,-591.5 "/>
<text text-anchor="start" x="209" y="-574.9" font-family="Times Roman,serif" font-size="14.00">_one_time_conditions_valid_72?</text>
<text text-anchor="start" x="209" y="-556.9" font-family="Times Roman,serif" font-size="14.00">create</text>
<text text-anchor="start" x="209" y="-538.9" font-family="Times Roman,serif" font-size="14.00">new</text>
<polyline fill="none" stroke="black" points="201,-529.5 439,-529.5 "/>
<polyline fill="none" stroke="black" points="201,-505.5 439,-505.5 "/>
<text text-anchor="start" x="209" y="-488.9" font-family="Times Roman,serif" font-size="14.00">_layout</text>
<text text-anchor="start" x="209" y="-470.9" font-family="Times Roman,serif" font-size="14.00">_run_process_action_callbacks</text>
</g>
<!-- ContactsController -->
<g id="node7" class="node"><title>ContactsController</title>
<polyline fill="none" stroke="black" points="593,-561.5 715,-561.5 "/>
<path fill="none" stroke="black" d="M715,-561.5C721,-561.5 727,-567.5 727,-573.5"/>
<polyline fill="none" stroke="black" points="727,-573.5 727,-759.5 "/>
<path fill="none" stroke="black" d="M727,-759.5C727,-765.5 721,-771.5 715,-771.5"/>
<polyline fill="none" stroke="black" points="715,-771.5 593,-771.5 "/>
<path fill="none" stroke="black" d="M593,-771.5C587,-771.5 581,-765.5 581,-759.5"/>
<polyline fill="none" stroke="black" points="581,-759.5 581,-573.5 "/>
<path fill="none" stroke="black" d="M581,-573.5C581,-567.5 587,-561.5 593,-561.5"/>
<text text-anchor="middle" x="654" y="-754.9" font-family="Times Roman,serif" font-size="14.00">ContactsController</text>
<polyline fill="none" stroke="black" points="581,-745.5 727,-745.5 "/>
<text text-anchor="start" x="589" y="-728.9" font-family="Times Roman,serif" font-size="14.00">create</text>
<text text-anchor="start" x="589" y="-710.9" font-family="Times Roman,serif" font-size="14.00">destroy</text>
<text text-anchor="start" x="589" y="-692.9" font-family="Times Roman,serif" font-size="14.00">edit</text>
<text text-anchor="start" x="589" y="-674.9" font-family="Times Roman,serif" font-size="14.00">index</text>
<text text-anchor="start" x="589" y="-656.9" font-family="Times Roman,serif" font-size="14.00">new</text>
<text text-anchor="start" x="589" y="-638.9" font-family="Times Roman,serif" font-size="14.00">show</text>
<text text-anchor="start" x="589" y="-620.9" font-family="Times Roman,serif" font-size="14.00">update</text>
<polyline fill="none" stroke="black" points="581,-611.5 727,-611.5 "/>
<polyline fill="none" stroke="black" points="581,-587.5 727,-587.5 "/>
<text text-anchor="start" x="589" y="-570.9" font-family="Times Roman,serif" font-size="14.00">_layout</text>
</g>
<!-- DashboardController -->
<g id="node8" class="node"><title>DashboardController</title>
<polyline fill="none" stroke="black" points="13,-621.5 149,-621.5 "/>
<path fill="none" stroke="black" d="M149,-621.5C155,-621.5 161,-627.5 161,-633.5"/>
<polyline fill="none" stroke="black" points="161,-633.5 161,-709.5 "/>
<path fill="none" stroke="black" d="M161,-709.5C161,-715.5 155,-721.5 149,-721.5"/>
<polyline fill="none" stroke="black" points="149,-721.5 13,-721.5 "/>
<path fill="none" stroke="black" d="M13,-721.5C7,-721.5 1,-715.5 1,-709.5"/>
<polyline fill="none" stroke="black" points="1,-709.5 1,-633.5 "/>
<path fill="none" stroke="black" d="M1,-633.5C1,-627.5 7,-621.5 13,-621.5"/>
<text text-anchor="middle" x="81" y="-704.9" font-family="Times Roman,serif" font-size="14.00">DashboardController</text>
<polyline fill="none" stroke="black" points="1,-695.5 161,-695.5 "/>
<polyline fill="none" stroke="black" points="1,-671.5 161,-671.5 "/>
<polyline fill="none" stroke="black" points="1,-647.5 161,-647.5 "/>
<text text-anchor="start" x="9" y="-630.9" font-family="Times Roman,serif" font-size="14.00">_layout</text>
</g>
<!-- ReportsController -->
<g id="node9" class="node"><title>ReportsController</title>
<polyline fill="none" stroke="black" points="33,-481.5 147,-481.5 "/>
<path fill="none" stroke="black" d="M147,-481.5C153,-481.5 159,-487.5 159,-493.5"/>
<polyline fill="none" stroke="black" points="159,-493.5 159,-571.5 "/>
<path fill="none" stroke="black" d="M159,-571.5C159,-577.5 153,-583.5 147,-583.5"/>
<polyline fill="none" stroke="black" points="147,-583.5 33,-583.5 "/>
<path fill="none" stroke="black" d="M33,-583.5C27,-583.5 21,-577.5 21,-571.5"/>
<polyline fill="none" stroke="black" points="21,-571.5 21,-493.5 "/>
<path fill="none" stroke="black" d="M21,-493.5C21,-487.5 27,-481.5 33,-481.5"/>
<text text-anchor="middle" x="90" y="-566.9" font-family="Times Roman,serif" font-size="14.00">ReportsController</text>
<polyline fill="none" stroke="black" points="21,-557.5 159,-557.5 "/>
<text text-anchor="start" x="29" y="-540.9" font-family="Times Roman,serif" font-size="14.00">show</text>
<polyline fill="none" stroke="black" points="21,-531.5 159,-531.5 "/>
<polyline fill="none" stroke="black" points="21,-507.5 159,-507.5 "/>
<text text-anchor="start" x="29" y="-490.9" font-family="Times Roman,serif" font-size="14.00">_layout</text>
</g>
<!-- AdminController -->
<g id="node10" class="node"><title>AdminController</title>
<polyline fill="none" stroke="black" points="53,-341.5 158,-341.5 "/>
<path fill="none" stroke="black" d="M158,-341.5C164,-341.5 170,-347.5 170,-353.5"/>
<polyline fill="none" stroke="black" points="170,-353.5 170,-429.5 "/>
<path fill="none" stroke="black" d="M170,-429.5C170,-435.5 164,-441.5 158,-441.5"/>
<polyline fill="none" stroke="black" points="158,-441.5 53,-441.5 "/>
<path fill="none" stroke="black" d="M53,-441.5C47,-441.5 41,-435.5 41,-429.5"/>
<polyline fill="none" stroke="black" points="41,-429.5 41,-353.5 "/>
<path fill="none" stroke="black" d="M41,-353.5C41,-347.5 47,-341.5 53,-341.5"/>
<text text-anchor="middle" x="105.5" y="-424.9" font-family="Times Roman,serif" font-size="14.00">AdminController</text>
<polyline fill="none" stroke="black" points="41,-415.5 170,-415.5 "/>
<polyline fill="none" stroke="black" points="41,-391.5 170,-391.5 "/>
<polyline fill="none" stroke="black" points="41,-367.5 170,-367.5 "/>
<text text-anchor="start" x="49" y="-350.9" font-family="Times Roman,serif" font-size="14.00">_layout</text>
</g>
<!-- SessionsController -->
<g id="node11" class="node"><title>SessionsController</title>
<polyline fill="none" stroke="black" points="493,-141.5 716,-141.5 "/>
<path fill="none" stroke="black" d="M716,-141.5C722,-141.5 728,-147.5 728,-153.5"/>
<polyline fill="none" stroke="black" points="728,-153.5 728,-303.5 "/>
<path fill="none" stroke="black" d="M728,-303.5C728,-309.5 722,-315.5 716,-315.5"/>
<polyline fill="none" stroke="black" points="716,-315.5 493,-315.5 "/>
<path fill="none" stroke="black" d="M493,-315.5C487,-315.5 481,-309.5 481,-303.5"/>
<polyline fill="none" stroke="black" points="481,-303.5 481,-153.5 "/>
<path fill="none" stroke="black" d="M481,-153.5C481,-147.5 487,-141.5 493,-141.5"/>
<text text-anchor="middle" x="604.5" y="-298.9" font-family="Times Roman,serif" font-size="14.00">SessionsController</text>
<polyline fill="none" stroke="black" points="481,-289.5 728,-289.5 "/>
<text text-anchor="start" x="489" y="-272.9" font-family="Times Roman,serif" font-size="14.00">_one_time_conditions_valid_170?</text>
<text text-anchor="start" x="489" y="-254.9" font-family="Times Roman,serif" font-size="14.00">create</text>
<text text-anchor="start" x="489" y="-236.9" font-family="Times Roman,serif" font-size="14.00">destroy</text>
<text text-anchor="start" x="489" y="-218.9" font-family="Times Roman,serif" font-size="14.00">new</text>
<polyline fill="none" stroke="black" points="481,-209.5 728,-209.5 "/>
<polyline fill="none" stroke="black" points="481,-185.5 728,-185.5 "/>
<text text-anchor="start" x="489" y="-168.9" font-family="Times Roman,serif" font-size="14.00">_layout</text>
<text text-anchor="start" x="489" y="-150.9" font-family="Times Roman,serif" font-size="14.00">_run_process_action_callbacks</text>
</g>
</g>
</svg>
