<?xml version="1.0" encoding="UTF-8" standalone="no"?>
<!DOCTYPE svg PUBLIC "-//W3C//DTD SVG 1.1//EN"
 "http://www.w3.org/Graphics/SVG/1.1/DTD/svg11.dtd">
<!-- Generated by graphviz version 2.26.3 (20100126.1600)
 -->
<!-- Title: models_diagram Pages: 1 -->
<svg width="2304pt" height="742pt"
 viewBox="0.00 0.00 2304.00 742.00" xmlns="http://www.w3.org/2000/svg" xmlns:xlink="http://www.w3.org/1999/xlink">
<g id="graph1" class="graph" transform="scale(1 1) rotate(0) translate(4 738)">
<title>models_diagram</title>
<polygon fill="white" stroke="white" points="-4,5 -4,-738 2301,-738 2301,5 -4,5"/>
<!-- _diagram_info -->
<g id="node1" class="node"><title>_diagram_info</title>
<text text-anchor="start" x="1220" y="-717.8" font-family="Times Roman,serif" font-size="13.00">Models diagram</text>
<text text-anchor="start" x="1220" y="-700.8" font-family="Times Roman,serif" font-size="13.00">Date: Jan 02 2012 &#45; 04:57</text>
<text text-anchor="start" x="1220" y="-683.8" font-family="Times Roman,serif" font-size="13.00">Migration version: 20111023233447</text>
<text text-anchor="start" x="1220" y="-666.8" font-family="Times Roman,serif" font-size="13.00">Generated by RailRoady 1.0.4</text>
<text text-anchor="start" x="1220" y="-649.8" font-family="Times Roman,serif" font-size="13.00">http://railroady.prestonlee.com</text>
</g>
<!-- AddressType -->
<g id="node2" class="node"><title>AddressType</title>
<ellipse fill="none" stroke="black" cx="124" cy="-507" rx="72.1249" ry="18.3848"/>
<text text-anchor="middle" x="124" y="-503.4" font-family="Times Roman,serif" font-size="14.00">AddressType</text>
</g>
<!-- Addres -->
<g id="node38" class="node"><title>Addres</title>
<ellipse fill="none" stroke="black" cx="124" cy="-395" rx="44.7575" ry="18.3848"/>
<text text-anchor="middle" x="124" y="-391.4" font-family="Times Roman,serif" font-size="14.00">Addres</text>
</g>
<!-- AddressType&#45;&gt;Addres -->
<g id="edge2" class="edge"><title>AddressType&#45;&gt;Addres</title>
<path fill="none" stroke="black" d="M124,-480.242C124,-463.273 124,-441.325 124,-423.95"/>
<ellipse fill="none" stroke="black" cx="124" cy="-484.254" rx="4" ry="4"/>
<polygon fill="black" stroke="black" points="124,-423.807 128.5,-413.807 124,-418.807 124,-413.807 124,-413.807 124,-413.807 124,-418.807 119.5,-413.807 124,-423.807 124,-423.807"/>
</g>
<!-- Address -->
<g id="node3" class="node"><title>Address</title>
<ellipse fill="none" stroke="black" cx="315" cy="-395" rx="50.2046" ry="18.3848"/>
<text text-anchor="middle" x="315" y="-391.4" font-family="Times Roman,serif" font-size="14.00">Address</text>
</g>
<!-- Report -->
<g id="node18" class="node"><title>Report</title>
<ellipse fill="none" stroke="black" cx="386" cy="-95" rx="43.8406" ry="18.3848"/>
<text text-anchor="middle" x="386" y="-91.4" font-family="Times Roman,serif" font-size="14.00">Report</text>
</g>
<!-- Address&#45;&gt;Report -->
<g id="edge10" class="edge"><title>Address&#45;&gt;Report</title>
<path fill="none" stroke="black" d="M309.627,-368.484C301.572,-322.116 290.622,-224.357 324,-152 330.358,-138.218 341.753,-126.241 353.056,-116.871"/>
<ellipse fill="none" stroke="black" cx="310.372" cy="-372.59" rx="4.00001" ry="4.00001"/>
<polygon fill="black" stroke="black" points="353.312,-116.671 363.964,-114.069 357.254,-113.596 361.197,-110.52 361.197,-110.52 361.197,-110.52 357.254,-113.596 358.429,-106.972 353.312,-116.671 353.312,-116.671"/>
</g>
<!-- Location -->
<g id="node19" class="node"><title>Location</title>
<ellipse fill="none" stroke="black" cx="386" cy="-171" rx="53.033" ry="18.3848"/>
<text text-anchor="middle" x="386" y="-167.4" font-family="Times Roman,serif" font-size="14.00">Location</text>
</g>
<!-- Address&#45;&gt;Location -->
<g id="edge6" class="edge"><title>Address&#45;&gt;Location</title>
<path fill="none" stroke="black" d="M323.385,-368.547C336.866,-326.016 363.244,-242.793 377.066,-199.185"/>
<ellipse fill="none" stroke="black" cx="322.14" cy="-372.474" rx="4.00001" ry="4.00001"/>
<polygon fill="black" stroke="black" points="377.114,-199.035 384.425,-190.862 378.625,-194.268 380.136,-189.502 380.136,-189.502 380.136,-189.502 378.625,-194.268 375.846,-188.142 377.114,-199.035 377.114,-199.035"/>
</g>
<!-- Contact -->
<g id="node34" class="node"><title>Contact</title>
<ellipse fill="none" stroke="black" cx="528" cy="-283" rx="50.2046" ry="18.3848"/>
<text text-anchor="middle" x="528" y="-279.4" font-family="Times Roman,serif" font-size="14.00">Contact</text>
</g>
<!-- Address&#45;&gt;Contact -->
<g id="edge8" class="edge"><title>Address&#45;&gt;Contact</title>
<path fill="none" stroke="black" d="M342.059,-370.526C346.182,-366.46 350.293,-362.198 354,-358 367.886,-342.275 364.591,-331.706 382,-320 396.911,-309.973 437.89,-300.049 472.651,-293.006"/>
<polygon fill="black" stroke="black" points="341.926,-370.654 331.595,-374.33 338.318,-374.116 334.71,-377.577 334.71,-377.577 334.71,-377.577 338.318,-374.116 337.826,-380.824 341.926,-370.654 341.926,-370.654"/>
<polygon fill="black" stroke="black" points="472.923,-292.952 483.607,-295.422 477.828,-291.98 482.732,-291.008 482.732,-291.008 482.732,-291.008 477.828,-291.98 481.857,-286.594 472.923,-292.952 472.923,-292.952"/>
</g>
<!-- EyeColor -->
<g id="node4" class="node"><title>EyeColor</title>
<ellipse fill="none" stroke="black" cx="1300" cy="-395" rx="55.1543" ry="18.3848"/>
<text text-anchor="middle" x="1300" y="-391.4" font-family="Times Roman,serif" font-size="14.00">EyeColor</text>
</g>
<!-- EyeColor&#45;&gt;Contact -->
<g id="edge12" class="edge"><title>EyeColor&#45;&gt;Contact</title>
<path fill="none" stroke="black" d="M1252.34,-379.955C1246.86,-378.493 1241.33,-377.134 1236,-376 998.582,-325.496 710.185,-297.845 587.665,-287.632"/>
<ellipse fill="none" stroke="black" cx="1256.45" cy="-381.092" rx="4.00001" ry="4.00001"/>
<polygon fill="black" stroke="black" points="587.346,-287.606 577.75,-282.299 582.363,-287.194 577.38,-286.783 577.38,-286.783 577.38,-286.783 582.363,-287.194 577.01,-291.268 587.346,-287.606 587.346,-287.606"/>
</g>
<!-- Alias -->
<g id="node5" class="node"><title>Alias</title>
<ellipse fill="none" stroke="black" cx="529" cy="-171" rx="34.1461" ry="18.3848"/>
<text text-anchor="middle" x="529" y="-167.4" font-family="Times Roman,serif" font-size="14.00">Alias</text>
</g>
<!-- Relationship -->
<g id="node6" class="node"><title>Relationship</title>
<ellipse fill="none" stroke="black" cx="686" cy="-171" rx="70.9184" ry="18.3848"/>
<text text-anchor="middle" x="686" y="-167.4" font-family="Times Roman,serif" font-size="14.00">Relationship</text>
</g>
<!-- CallForService -->
<g id="node7" class="node"><title>CallForService</title>
<ellipse fill="none" stroke="black" cx="1680" cy="-687" rx="80.1095" ry="18.3848"/>
<text text-anchor="middle" x="1680" y="-683.4" font-family="Times Roman,serif" font-size="14.00">CallForService</text>
</g>
<!-- Country -->
<g id="node8" class="node"><title>Country</title>
<ellipse fill="none" stroke="black" cx="1531" cy="-687" rx="51.1176" ry="18.3848"/>
<text text-anchor="middle" x="1531" y="-683.4" font-family="Times Roman,serif" font-size="14.00">Country</text>
</g>
<!-- State -->
<g id="node29" class="node"><title>State</title>
<ellipse fill="none" stroke="black" cx="1531" cy="-583" rx="38.1838" ry="18.3848"/>
<text text-anchor="middle" x="1531" y="-579.4" font-family="Times Roman,serif" font-size="14.00">State</text>
</g>
<!-- Country&#45;&gt;State -->
<g id="edge16" class="edge"><title>Country&#45;&gt;State</title>
<path fill="none" stroke="black" d="M1531,-659.926C1531,-645.224 1531,-627.041 1531,-612.044"/>
<ellipse fill="none" stroke="black" cx="1531" cy="-664.407" rx="4" ry="4"/>
<polygon fill="black" stroke="black" points="1531,-611.783 1535.5,-601.783 1531,-606.783 1531,-601.783 1531,-601.783 1531,-601.783 1531,-606.783 1526.5,-601.783 1531,-611.783 1531,-611.783"/>
</g>
<!-- RelationshipType -->
<g id="node9" class="node"><title>RelationshipType</title>
<ellipse fill="none" stroke="black" cx="1637" cy="-451" rx="92.839" ry="18.3848"/>
<text text-anchor="middle" x="1637" y="-447.4" font-family="Times Roman,serif" font-size="14.00">RelationshipType</text>
</g>
<!-- RelationshipType&#45;&gt;Relationship -->
<g id="edge18" class="edge"><title>RelationshipType&#45;&gt;Relationship</title>
<path fill="none" stroke="black" d="M1634.79,-424.49C1630.79,-394.34 1619.54,-345.942 1588,-320 1462.84,-217.062 963.449,-183.54 766.474,-174.189"/>
<ellipse fill="none" stroke="black" cx="1635.27" cy="-428.505" rx="4.00001" ry="4.00001"/>
<polygon fill="black" stroke="black" points="766.467,-174.189 756.688,-169.228 761.472,-173.956 756.478,-173.723 756.478,-173.723 756.478,-173.723 761.472,-173.956 756.268,-178.218 766.467,-174.189 766.467,-174.189"/>
</g>
<!-- PropertyType -->
<g id="node10" class="node"><title>PropertyType</title>
<ellipse fill="none" stroke="black" cx="611" cy="-395" rx="75.8684" ry="18.3848"/>
<text text-anchor="middle" x="611" y="-391.4" font-family="Times Roman,serif" font-size="14.00">PropertyType</text>
</g>
<!-- Gender -->
<g id="node11" class="node"><title>Gender</title>
<ellipse fill="none" stroke="black" cx="469" cy="-395" rx="48.0833" ry="18.3848"/>
<text text-anchor="middle" x="469" y="-391.4" font-family="Times Roman,serif" font-size="14.00">Gender</text>
</g>
<!-- Gender&#45;&gt;Contact -->
<g id="edge24" class="edge"><title>Gender&#45;&gt;Contact</title>
<path fill="none" stroke="black" d="M482.553,-369.273C491.748,-351.817 503.9,-328.75 513.324,-310.86"/>
<ellipse fill="none" stroke="black" cx="480.607" cy="-372.966" rx="4.00002" ry="4.00002"/>
<polygon fill="black" stroke="black" points="513.582,-310.369 522.224,-303.619 515.912,-305.946 518.243,-301.522 518.243,-301.522 518.243,-301.522 515.912,-305.946 514.262,-299.425 513.582,-310.369 513.582,-310.369"/>
</g>
<!-- User -->
<g id="node12" class="node"><title>User</title>
<ellipse fill="none" stroke="black" cx="1812" cy="-687" rx="33.9411" ry="18.3848"/>
<text text-anchor="middle" x="1812" y="-683.4" font-family="Times Roman,serif" font-size="14.00">User</text>
</g>
<!-- Search -->
<g id="node13" class="node"><title>Search</title>
<polygon fill="none" stroke="black" points="1928,-705 1864,-705 1864,-669 1928,-669 1928,-705"/>
<text text-anchor="middle" x="1896" y="-683.4" font-family="Times Roman,serif" font-size="14.00">Search</text>
</g>
<!-- HairColor -->
<g id="node14" class="node"><title>HairColor</title>
<ellipse fill="none" stroke="black" cx="762" cy="-395" rx="56.7776" ry="18.3848"/>
<text text-anchor="middle" x="762" y="-391.4" font-family="Times Roman,serif" font-size="14.00">HairColor</text>
</g>
<!-- HairColor&#45;&gt;Contact -->
<g id="edge28" class="edge"><title>HairColor&#45;&gt;Contact</title>
<path fill="none" stroke="black" d="M722.532,-376.109C679.55,-355.537 611.182,-322.814 567.995,-302.143"/>
<ellipse fill="none" stroke="black" cx="726.346" cy="-377.935" rx="4.00002" ry="4.00002"/>
<polygon fill="black" stroke="black" points="567.935,-302.114 560.858,-293.738 563.425,-299.956 558.915,-297.797 558.915,-297.797 558.915,-297.797 563.425,-299.956 556.972,-301.856 567.935,-302.114 567.935,-302.114"/>
</g>
<!-- Race -->
<g id="node15" class="node"><title>Race</title>
<ellipse fill="none" stroke="black" cx="872" cy="-395" rx="34.8574" ry="18.3848"/>
<text text-anchor="middle" x="872" y="-391.4" font-family="Times Roman,serif" font-size="14.00">Race</text>
</g>
<!-- Race&#45;&gt;Contact -->
<g id="edge32" class="edge"><title>Race&#45;&gt;Contact</title>
<path fill="none" stroke="black" d="M837.65,-379.825C834.403,-378.494 831.149,-377.199 828,-376 742.012,-343.26 639.042,-313.275 578.835,-296.638"/>
<ellipse fill="none" stroke="black" cx="841.471" cy="-381.423" rx="4.00002" ry="4.00002"/>
<polygon fill="black" stroke="black" points="578.469,-296.538 570.019,-289.548 573.648,-295.212 568.827,-293.887 568.827,-293.887 568.827,-293.887 573.648,-295.212 567.634,-298.226 578.469,-296.538 578.469,-296.538"/>
</g>
<!-- VehicleMake -->
<g id="node16" class="node"><title>VehicleMake</title>
<ellipse fill="none" stroke="black" cx="996" cy="-395" rx="70.9184" ry="18.3848"/>
<text text-anchor="middle" x="996" y="-391.4" font-family="Times Roman,serif" font-size="14.00">VehicleMake</text>
</g>
<!-- Involvement -->
<g id="node17" class="node"><title>Involvement</title>
<ellipse fill="none" stroke="black" cx="698" cy="-19" rx="72.832" ry="18.3848"/>
<text text-anchor="middle" x="698" y="-15.4" font-family="Times Roman,serif" font-size="14.00">Involvement</text>
</g>
<!-- Report&#45;&gt;Involvement -->
<g id="edge38" class="edge"><title>Report&#45;&gt;Involvement</title>
<path fill="none" stroke="black" d="M432.364,-83.7061C486.31,-70.5656 575.628,-48.8086 635.624,-34.1942"/>
<ellipse fill="none" stroke="black" cx="428.144" cy="-84.7342" rx="4.00001" ry="4.00001"/>
<polygon fill="black" stroke="black" points="635.644,-34.1893 646.425,-36.1947 640.502,-33.0059 645.36,-31.8225 645.36,-31.8225 645.36,-31.8225 640.502,-33.0059 644.295,-27.4504 635.644,-34.1893 635.644,-34.1893"/>
</g>
<!-- Report&#45;&gt;Contact -->
<g id="edge40" class="edge"><title>Report&#45;&gt;Contact</title>
<path fill="none" stroke="black" d="M414.459,-118.16C425.602,-127.966 438.066,-139.909 448,-152 475.089,-184.968 499.589,-227.944 514.14,-255.511"/>
<polygon fill="black" stroke="black" points="414.214,-117.949 409.57,-108.015 410.424,-114.687 406.634,-111.425 406.634,-111.425 406.634,-111.425 410.424,-114.687 403.699,-114.836 414.214,-117.949 414.214,-117.949"/>
<polygon fill="black" stroke="black" points="514.242,-255.708 514.869,-266.656 516.551,-260.143 518.86,-264.578 518.86,-264.578 518.86,-264.578 516.551,-260.143 522.852,-262.5 514.242,-255.708 514.242,-255.708"/>
</g>
<!-- Location&#45;&gt;Report -->
<g id="edge42" class="edge"><title>Location&#45;&gt;Report</title>
<path fill="none" stroke="black" d="M386,-144.073C386,-137.449 386,-130.332 386,-123.63"/>
<ellipse fill="none" stroke="black" cx="386" cy="-148.213" rx="4" ry="4"/>
<polygon fill="black" stroke="black" points="386,-123.57 390.5,-113.57 386,-118.57 386,-113.57 386,-113.57 386,-113.57 386,-118.57 381.5,-113.57 386,-123.57 386,-123.57"/>
</g>
<!-- ContactType -->
<g id="node20" class="node"><title>ContactType</title>
<ellipse fill="none" stroke="black" cx="434" cy="-451" rx="72.1249" ry="18.3848"/>
<text text-anchor="middle" x="434" y="-447.4" font-family="Times Roman,serif" font-size="14.00">ContactType</text>
</g>
<!-- ContactType&#45;&gt;Contact -->
<g id="edge44" class="edge"><title>ContactType&#45;&gt;Contact</title>
<path fill="none" stroke="black" d="M416.608,-425.687C414.717,-421.909 413.086,-417.952 412,-414 407.524,-397.715 404.692,-391.226 412,-376 427.705,-343.281 461.151,-318.448 488.113,-302.709"/>
<ellipse fill="none" stroke="black" cx="418.552" cy="-429.188" rx="4.00002" ry="4.00002"/>
<polygon fill="black" stroke="black" points="488.259,-302.627 499.18,-301.643 492.616,-300.174 496.973,-297.722 496.973,-297.722 496.973,-297.722 492.616,-300.174 494.765,-293.8 488.259,-302.627 488.259,-302.627"/>
</g>
<!-- HowReported -->
<g id="node21" class="node"><title>HowReported</title>
<ellipse fill="none" stroke="black" cx="78" cy="-339" rx="77.7817" ry="18.3848"/>
<text text-anchor="middle" x="78" y="-335.4" font-family="Times Roman,serif" font-size="14.00">HowReported</text>
</g>
<!-- HowReported&#45;&gt;Report -->
<g id="edge48" class="edge"><title>HowReported&#45;&gt;Report</title>
<path fill="none" stroke="black" d="M87.5099,-312.618C98.7653,-284.201 119.743,-238.912 149,-208 200.809,-153.261 284.559,-122.093 337.378,-106.882"/>
<ellipse fill="none" stroke="black" cx="86.0366" cy="-316.429" rx="4.00001" ry="4.00001"/>
<polygon fill="black" stroke="black" points="337.558,-106.832 348.401,-108.472 342.373,-105.485 347.188,-104.138 347.188,-104.138 347.188,-104.138 342.373,-105.485 345.976,-99.8044 337.558,-106.832 337.558,-106.832"/>
</g>
<!-- City -->
<g id="node22" class="node"><title>City</title>
<ellipse fill="none" stroke="black" cx="1745" cy="-395" rx="31.1127" ry="18.3848"/>
<text text-anchor="middle" x="1745" y="-391.4" font-family="Times Roman,serif" font-size="14.00">City</text>
</g>
<!-- Code -->
<g id="node23" class="node"><title>Code</title>
<ellipse fill="none" stroke="black" cx="1060" cy="-507" rx="36.0624" ry="18.3848"/>
<text text-anchor="middle" x="1060" y="-503.4" font-family="Times Roman,serif" font-size="14.00">Code</text>
</g>
<!-- Code&#45;&gt;EyeColor -->
<g id="edge14" class="edge"><title>Code&#45;&gt;EyeColor</title>
<path fill="none" stroke="black" d="M1087.06,-494.37C1131.56,-473.603 1220,-432.334 1267.7,-410.073"/>
</g>
<!-- Code&#45;&gt;PropertyType -->
<g id="edge22" class="edge"><title>Code&#45;&gt;PropertyType</title>
<path fill="none" stroke="black" d="M1024.61,-502.712C980.864,-497.03 904.307,-485.843 840,-470 773.18,-453.537 697.678,-427.264 652.243,-410.585"/>
</g>
<!-- Code&#45;&gt;Gender -->
<g id="edge26" class="edge"><title>Code&#45;&gt;Gender</title>
<path fill="none" stroke="black" d="M1023.88,-505.447C960.01,-502.199 823.173,-492.986 710,-470 626.229,-452.985 607.443,-439.962 526,-414 519.242,-411.846 512.052,-409.495 505.137,-407.205"/>
</g>
<!-- Code&#45;&gt;HairColor -->
<g id="edge30" class="edge"><title>Code&#45;&gt;HairColor</title>
<path fill="none" stroke="black" d="M1027.53,-498.671C1001.87,-491.8 965.286,-481.364 934,-470 884.244,-451.927 828.351,-426.579 794.161,-410.474"/>
</g>
<!-- Code&#45;&gt;Race -->
<g id="edge34" class="edge"><title>Code&#45;&gt;Race</title>
<path fill="none" stroke="black" d="M1036.19,-492.815C999.928,-471.213 931.291,-430.322 895.322,-408.894"/>
</g>
<!-- Code&#45;&gt;VehicleMake -->
<g id="edge36" class="edge"><title>Code&#45;&gt;VehicleMake</title>
<path fill="none" stroke="black" d="M1049.72,-489.005C1037.84,-468.229 1018.42,-434.237 1006.47,-413.322"/>
</g>
<!-- VehicleColor -->
<g id="node28" class="node"><title>VehicleColor</title>
<ellipse fill="none" stroke="black" cx="1156" cy="-395" rx="70.9184" ry="18.3848"/>
<text text-anchor="middle" x="1156" y="-391.4" font-family="Times Roman,serif" font-size="14.00">VehicleColor</text>
</g>
<!-- Code&#45;&gt;VehicleColor -->
<g id="edge52" class="edge"><title>Code&#45;&gt;VehicleColor</title>
<path fill="none" stroke="black" d="M1074.58,-489.99C1092.31,-469.306 1122.11,-434.534 1140.32,-413.289"/>
</g>
<!-- VehicleModel -->
<g id="node31" class="node"><title>VehicleModel</title>
<ellipse fill="none" stroke="black" cx="1448" cy="-395" rx="74.9533" ry="18.3848"/>
<text text-anchor="middle" x="1448" y="-391.4" font-family="Times Roman,serif" font-size="14.00">VehicleModel</text>
</g>
<!-- Code&#45;&gt;VehicleModel -->
<g id="edge58" class="edge"><title>Code&#45;&gt;VehicleModel</title>
<path fill="none" stroke="black" d="M1091.99,-498.337C1119.17,-490.938 1159.19,-479.944 1194,-470 1266.06,-449.413 1349.33,-424.637 1400.32,-409.352"/>
</g>
<!-- Offense -->
<g id="node35" class="node"><title>Offense</title>
<ellipse fill="none" stroke="black" cx="1538" cy="-339" rx="48.9975" ry="18.3848"/>
<text text-anchor="middle" x="1538" y="-335.4" font-family="Times Roman,serif" font-size="14.00">Offense</text>
</g>
<!-- Code&#45;&gt;Offense -->
<g id="edge84" class="edge"><title>Code&#45;&gt;Offense</title>
<path fill="none" stroke="black" d="M1096.07,-505.382C1196.27,-500.079 1474.45,-479.615 1532,-414 1545.35,-398.779 1544.73,-374.495 1542.17,-357.703"/>
</g>
<!-- StaticData -->
<g id="node24" class="node"><title>StaticData</title>
<ellipse fill="none" stroke="black" cx="2009" cy="-687" rx="63.1385" ry="18.3848"/>
<text text-anchor="middle" x="2009" y="-683.4" font-family="Times Roman,serif" font-size="14.00">StaticData</text>
</g>
<!-- Type -->
<g id="node25" class="node"><title>Type</title>
<ellipse fill="none" stroke="black" cx="259" cy="-583" rx="33.9411" ry="18.3848"/>
<text text-anchor="middle" x="259" y="-579.4" font-family="Times Roman,serif" font-size="14.00">Type</text>
</g>
<!-- Type&#45;&gt;AddressType -->
<g id="edge4" class="edge"><title>Type&#45;&gt;AddressType</title>
<path fill="none" stroke="black" d="M235.175,-569.588C212.618,-556.889 178.657,-537.77 154.209,-524.006"/>
</g>
<!-- Type&#45;&gt;RelationshipType -->
<g id="edge20" class="edge"><title>Type&#45;&gt;RelationshipType</title>
<path fill="none" stroke="black" d="M292.925,-581.602C407.451,-576.695 790.202,-558.751 1105,-526 1270.14,-508.82 1462.83,-479.271 1564.92,-462.86"/>
</g>
<!-- Type&#45;&gt;ContactType -->
<g id="edge46" class="edge"><title>Type&#45;&gt;ContactType</title>
<path fill="none" stroke="black" d="M291.447,-577.168C337.448,-568.164 417.951,-549.442 435,-526 446.795,-509.782 444.037,-485.935 439.967,-469.507"/>
</g>
<!-- Type&#45;&gt;HowReported -->
<g id="edge50" class="edge"><title>Type&#45;&gt;HowReported</title>
<path fill="none" stroke="black" d="M225.647,-579.128C170.746,-571.992 65.1891,-554.804 43,-526 3.79571,-475.108 44.3671,-393.603 66.123,-357.38"/>
</g>
<!-- ReportType -->
<g id="node32" class="node"><title>ReportType</title>
<ellipse fill="none" stroke="black" cx="224" cy="-227" rx="65.9683" ry="18.3848"/>
<text text-anchor="middle" x="224" y="-223.4" font-family="Times Roman,serif" font-size="14.00">ReportType</text>
</g>
<!-- Type&#45;&gt;ReportType -->
<g id="edge62" class="edge"><title>Type&#45;&gt;ReportType</title>
<path fill="none" stroke="black" d="M245.967,-565.908C236.016,-551.137 224,-528.79 224,-507 224,-507 224,-507 224,-339 224,-306.139 224,-267.854 224,-245.628"/>
</g>
<!-- StreetDirection -->
<g id="node36" class="node"><title>StreetDirection</title>
<ellipse fill="none" stroke="black" cx="339" cy="-507" rx="86.9741" ry="18.3848"/>
<text text-anchor="middle" x="339" y="-503.4" font-family="Times Roman,serif" font-size="14.00">StreetDirection</text>
</g>
<!-- Type&#45;&gt;StreetDirection -->
<g id="edge88" class="edge"><title>Type&#45;&gt;StreetDirection</title>
<path fill="none" stroke="black" d="M275.966,-566.882C288.808,-554.682 306.456,-537.917 319.813,-525.228"/>
</g>
<!-- Sequence -->
<g id="node26" class="node"><title>Sequence</title>
<ellipse fill="none" stroke="black" cx="2148" cy="-687" rx="58.1882" ry="18.3848"/>
<text text-anchor="middle" x="2148" y="-683.4" font-family="Times Roman,serif" font-size="14.00">Sequence</text>
</g>
<!-- Analysis -->
<g id="node27" class="node"><title>Analysis</title>
<polygon fill="none" stroke="black" points="2296,-705 2224,-705 2224,-669 2296,-669 2296,-705"/>
<text text-anchor="middle" x="2260" y="-683.4" font-family="Times Roman,serif" font-size="14.00">Analysis</text>
</g>
<!-- State&#45;&gt;Code -->
<g id="edge56" class="edge"><title>State&#45;&gt;Code</title>
<path fill="none" stroke="black" d="M1486.71,-575.854C1396.95,-561.37 1194.48,-528.7 1104.52,-514.184"/>
<ellipse fill="none" stroke="black" cx="1490.87" cy="-576.525" rx="4.00001" ry="4.00001"/>
<polygon fill="black" stroke="black" points="1104.25,-514.141 1095.1,-508.105 1099.32,-513.344 1094.38,-512.548 1094.38,-512.548 1094.38,-512.548 1099.32,-513.344 1093.66,-516.99 1104.25,-514.141 1104.25,-514.141"/>
</g>
<!-- County -->
<g id="node33" class="node"><title>County</title>
<ellipse fill="none" stroke="black" cx="1745" cy="-507" rx="46.8775" ry="18.3848"/>
<text text-anchor="middle" x="1745" y="-503.4" font-family="Times Roman,serif" font-size="14.00">County</text>
</g>
<!-- State&#45;&gt;County -->
<g id="edge54" class="edge"><title>State&#45;&gt;County</title>
<path fill="none" stroke="black" d="M1569.8,-569.22C1606.62,-556.144 1661.91,-536.508 1700.5,-522.803"/>
<ellipse fill="none" stroke="black" cx="1565.89" cy="-570.61" rx="4.00001" ry="4.00001"/>
<polygon fill="black" stroke="black" points="1700.51,-522.801 1711.44,-523.695 1705.22,-521.128 1709.93,-519.454 1709.93,-519.454 1709.93,-519.454 1705.22,-521.128 1708.42,-515.214 1700.51,-522.801 1700.51,-522.801"/>
</g>
<!-- StreetName -->
<g id="node30" class="node"><title>StreetName</title>
<ellipse fill="none" stroke="black" cx="1864" cy="-395" rx="70.2092" ry="18.3848"/>
<text text-anchor="middle" x="1864" y="-391.4" font-family="Times Roman,serif" font-size="14.00">StreetName</text>
</g>
<!-- ReportType&#45;&gt;Report -->
<g id="edge60" class="edge"><title>ReportType&#45;&gt;Report</title>
<path fill="none" stroke="black" d="M236.62,-201.34C248.183,-180.175 267.114,-150.691 291,-132 304.737,-121.251 321.975,-113.295 337.984,-107.574"/>
<ellipse fill="none" stroke="black" cx="234.72" cy="-204.916" rx="4.00002" ry="4.00002"/>
<polygon fill="black" stroke="black" points="338.27,-107.478 349.182,-108.562 343.01,-105.887 347.751,-104.296 347.751,-104.296 347.751,-104.296 343.01,-105.887 346.319,-100.03 338.27,-107.478 338.27,-107.478"/>
</g>
<!-- County&#45;&gt;City -->
<g id="edge64" class="edge"><title>County&#45;&gt;City</title>
<path fill="none" stroke="black" d="M1745,-480.242C1745,-463.273 1745,-441.325 1745,-423.95"/>
<ellipse fill="none" stroke="black" cx="1745" cy="-484.254" rx="4" ry="4"/>
<polygon fill="black" stroke="black" points="1745,-423.807 1749.5,-413.807 1745,-418.807 1745,-413.807 1745,-413.807 1745,-413.807 1745,-418.807 1740.5,-413.807 1745,-423.807 1745,-423.807"/>
</g>
<!-- County&#45;&gt;StreetName -->
<g id="edge66" class="edge"><title>County&#45;&gt;StreetName</title>
<path fill="none" stroke="black" d="M1769.36,-484.073C1789.23,-465.37 1817.25,-438.996 1837.65,-419.803"/>
<ellipse fill="none" stroke="black" cx="1766.25" cy="-487.004" rx="4.00002" ry="4.00002"/>
<polygon fill="black" stroke="black" points="1837.77,-419.684 1848.14,-416.107 1841.41,-416.257 1845.06,-412.83 1845.06,-412.83 1845.06,-412.83 1841.41,-416.257 1841.97,-409.553 1837.77,-419.684 1837.77,-419.684"/>
</g>
<!-- Contact&#45;&gt;Alias -->
<g id="edge70" class="edge"><title>Contact&#45;&gt;Alias</title>
<path fill="none" stroke="black" d="M525.556,-256C525.327,-252.635 525.131,-249.24 525,-246 524.317,-229.125 524.091,-224.864 525,-208 525.14,-205.403 525.335,-202.708 525.564,-200.01"/>
<ellipse fill="none" stroke="black" cx="525.876" cy="-260.207" rx="4" ry="4"/>
<polygon fill="black" stroke="black" points="525.59,-199.743 531.051,-190.233 526.081,-194.767 526.572,-189.791 526.572,-189.791 526.572,-189.791 526.081,-194.767 522.094,-189.349 525.59,-199.743 525.59,-199.743"/>
</g>
<!-- Contact&#45;&gt;Relationship -->
<g id="edge74" class="edge"><title>Contact&#45;&gt;Relationship</title>
<path fill="none" stroke="black" d="M527.489,-256.039C528.637,-240.103 532.785,-220.634 545,-208 555.233,-197.415 585.289,-188.809 615.036,-182.57"/>
<ellipse fill="none" stroke="black" cx="527.3" cy="-260.467" rx="4" ry="4"/>
<polygon fill="black" stroke="black" points="615.28,-182.521 625.972,-184.956 620.181,-181.533 625.083,-180.545 625.083,-180.545 625.083,-180.545 620.181,-181.533 624.194,-176.134 615.28,-182.521 615.28,-182.521"/>
<text text-anchor="middle" x="604.5" y="-223.4" font-family="Times Roman,serif" font-size="14.00">relationships_out</text>
</g>
<!-- Contact&#45;&gt;Relationship -->
<g id="edge78" class="edge"><title>Contact&#45;&gt;Relationship</title>
<path fill="none" stroke="black" d="M582.151,-273.841C614.747,-267.294 652.161,-257.608 664,-246 676.281,-233.959 681.794,-215.455 684.23,-199.841"/>
<ellipse fill="none" stroke="black" cx="577.912" cy="-274.67" rx="4.00001" ry="4.00001"/>
<polygon fill="black" stroke="black" points="684.267,-199.535 689.938,-190.149 684.869,-194.571 685.471,-189.607 685.471,-189.607 685.471,-189.607 684.869,-194.571 681.004,-189.066 684.267,-199.535 684.267,-199.535"/>
<text text-anchor="middle" x="736.5" y="-223.4" font-family="Times Roman,serif" font-size="14.00">relationships_in</text>
</g>
<!-- Contact&#45;&gt;Involvement -->
<g id="edge72" class="edge"><title>Contact&#45;&gt;Involvement</title>
<path fill="none" stroke="black" d="M585.699,-278.988C660.061,-273.22 781.46,-261.545 795,-246 848.483,-184.594 769.138,-89.2899 724.676,-44.235"/>
<ellipse fill="none" stroke="black" cx="581.309" cy="-279.323" rx="4" ry="4"/>
<polygon fill="black" stroke="black" points="724.431,-43.9904 720.517,-33.7467 720.887,-40.4634 717.343,-36.9363 717.343,-36.9363 717.343,-36.9363 720.887,-40.4634 714.168,-40.1259 724.431,-43.9904 724.431,-43.9904"/>
</g>
<!-- Contact&#45;&gt;Location -->
<g id="edge68" class="edge"><title>Contact&#45;&gt;Location</title>
<path fill="none" stroke="black" d="M486.228,-265.901C474.926,-260.359 463.051,-253.64 453,-246 434.822,-232.181 417.731,-212.908 405.361,-197.359"/>
<ellipse fill="none" stroke="black" cx="489.932" cy="-267.657" rx="4.00002" ry="4.00002"/>
<polygon fill="black" stroke="black" points="405.13,-197.062 402.552,-186.403 402.063,-193.112 398.997,-189.163 398.997,-189.163 398.997,-189.163 402.063,-193.112 395.443,-191.923 405.13,-197.062 405.13,-197.062"/>
</g>
<!-- Contact&#45;&gt;Contact -->
<g id="edge76" class="edge"><title>Contact&#45;&gt;Contact</title>
<path fill="none" stroke="black" d="M586.301,-287.312C592.222,-286.458 596,-285.021 596,-283 596,-280.979 592.222,-279.542 586.301,-278.688"/>
<polygon fill="black" stroke="black" points="586.25,-287.317 575.911,-283.662 581.268,-287.731 576.285,-288.146 576.285,-288.146 576.285,-288.146 581.268,-287.731 576.658,-292.631 586.25,-287.317 586.25,-287.317"/>
<polygon fill="black" stroke="black" points="586.25,-278.683 576.658,-273.369 581.268,-278.269 576.285,-277.854 576.285,-277.854 576.285,-277.854 581.268,-278.269 575.911,-282.338 586.25,-278.683 586.25,-278.683"/>
<text text-anchor="middle" x="652" y="-279.4" font-family="Times Roman,serif" font-size="14.00">relationship_out</text>
</g>
<!-- Contact&#45;&gt;Contact -->
<g id="edge80" class="edge"><title>Contact&#45;&gt;Contact</title>
<path fill="none" stroke="black" d="M573.492,-297.91C628.174,-306.127 708,-301.157 708,-283 708,-264.843 628.174,-259.873 573.492,-268.09"/>
<polygon fill="black" stroke="black" points="573.457,-297.904 564.356,-291.786 568.528,-297.063 563.599,-296.222 563.599,-296.222 563.599,-296.222 568.528,-297.063 562.843,-300.658 573.457,-297.904 573.457,-297.904"/>
<polygon fill="black" stroke="black" points="573.457,-268.096 562.843,-265.342 568.528,-268.937 563.599,-269.778 563.599,-269.778 563.599,-269.778 568.528,-268.937 564.356,-274.214 573.457,-268.096 573.457,-268.096"/>
<text text-anchor="middle" x="759" y="-279.4" font-family="Times Roman,serif" font-size="14.00">relationship_in</text>
</g>
<!-- Offense&#45;&gt;Report -->
<g id="edge82" class="edge"><title>Offense&#45;&gt;Report</title>
<path fill="none" stroke="black" d="M1490.1,-325.824C1369.37,-292.958 1042.5,-206.115 766,-152 649.699,-129.238 511.825,-110.619 438.32,-101.354"/>
<ellipse fill="none" stroke="black" cx="1494.23" cy="-326.951" rx="4.00001" ry="4.00001"/>
<polygon fill="black" stroke="black" points="438.307,-101.352 428.944,-95.6439 433.345,-100.731 428.384,-100.109 428.384,-100.109 428.384,-100.109 433.345,-100.731 427.825,-104.574 438.307,-101.352 438.307,-101.352"/>
</g>
<!-- StreetDirection&#45;&gt;Address -->
<g id="edge86" class="edge"><title>StreetDirection&#45;&gt;Address</title>
<path fill="none" stroke="black" d="M333.311,-480.452C329.652,-463.378 324.899,-441.198 321.153,-423.714"/>
<ellipse fill="none" stroke="black" cx="334.199" cy="-484.594" rx="4.00001" ry="4.00001"/>
<polygon fill="black" stroke="black" points="321.064,-423.3 323.369,-412.579 320.017,-418.411 318.969,-413.522 318.969,-413.522 318.969,-413.522 320.017,-418.411 314.569,-414.465 321.064,-423.3 321.064,-423.3"/>
</g>
</g>
</svg>
