<?xml version="1.0" encoding="UTF-8" standalone="no"?>
<!DOCTYPE svg PUBLIC "-//W3C//DTD SVG 1.1//EN"
 "http://www.w3.org/Graphics/SVG/1.1/DTD/svg11.dtd">
<!-- Generated by graphviz version 2.26.3 (20100126.1600)
 -->
<!-- Title: models_diagram Pages: 1 -->
<svg width="1782pt" height="534pt"
 viewBox="0.00 0.00 1782.00 534.00" xmlns="http://www.w3.org/2000/svg" xmlns:xlink="http://www.w3.org/1999/xlink">
<g id="graph1" class="graph" transform="scale(1 1) rotate(0) translate(4 530)">
<title>models_diagram</title>
<polygon fill="white" stroke="white" points="-4,5 -4,-530 1779,-530 1779,5 -4,5"/>
<!-- _diagram_info -->
<g id="node1" class="node"><title>_diagram_info</title>
<text text-anchor="start" x="750" y="-509.8" font-family="Times Roman,serif" font-size="13.00">Models diagram</text>
<text text-anchor="start" x="750" y="-492.8" font-family="Times Roman,serif" font-size="13.00">Date: Oct 16 2011 &#45; 06:53</text>
<text text-anchor="start" x="750" y="-475.8" font-family="Times Roman,serif" font-size="13.00">Migration version: 20111013013231</text>
<text text-anchor="start" x="750" y="-458.8" font-family="Times Roman,serif" font-size="13.00">Generated by RailRoady 1.0.2</text>
<text text-anchor="start" x="750" y="-441.8" font-family="Times Roman,serif" font-size="13.00">http://railroady.prestonlee.com</text>
</g>
<!-- Address -->
<g id="node2" class="node"><title>Address</title>
<ellipse fill="none" stroke="black" cx="178" cy="-223" rx="50.2046" ry="18.3848"/>
<text text-anchor="middle" x="178" y="-219.4" font-family="Times Roman,serif" font-size="14.00">Address</text>
</g>
<!-- Location -->
<g id="node17" class="node"><title>Location</title>
<ellipse fill="none" stroke="black" cx="661" cy="-19" rx="53.033" ry="18.3848"/>
<text text-anchor="middle" x="661" y="-15.4" font-family="Times Roman,serif" font-size="14.00">Location</text>
</g>
<!-- Address&#45;&gt;Location -->
<g id="edge2" class="edge"><title>Address&#45;&gt;Location</title>
<path fill="none" stroke="black" d="M218.751,-205.788C308.971,-167.683 524.904,-76.4816 617.562,-37.3465"/>
<ellipse fill="none" stroke="black" cx="214.883" cy="-207.422" rx="4.00002" ry="4.00002"/>
<polygon fill="black" stroke="black" points="617.713,-37.2827 628.676,-37.5373 622.319,-35.3373 626.925,-33.3918 626.925,-33.3918 626.925,-33.3918 622.319,-35.3373 625.174,-29.2464 617.713,-37.2827 617.713,-37.2827"/>
</g>
<!-- Contact -->
<g id="node28" class="node"><title>Contact</title>
<ellipse fill="none" stroke="black" cx="1030" cy="-111" rx="50.2046" ry="18.3848"/>
<text text-anchor="middle" x="1030" y="-107.4" font-family="Times Roman,serif" font-size="14.00">Contact</text>
</g>
<!-- Address&#45;&gt;Contact -->
<g id="edge4" class="edge"><title>Address&#45;&gt;Contact</title>
<path fill="none" stroke="black" d="M223.804,-207.279C228.232,-206.053 232.682,-204.932 237,-204 306.087,-189.095 324.794,-194.145 395,-186 607.794,-161.312 860.602,-131.227 972.181,-117.91"/>
<polygon fill="black" stroke="black" points="223.797,-207.281 212.934,-205.78 218.999,-208.69 214.202,-210.098 214.202,-210.098 214.202,-210.098 218.999,-208.69 215.469,-214.416 223.797,-207.281 223.797,-207.281"/>
<polygon fill="black" stroke="black" points="972.284,-117.898 982.747,-121.181 977.248,-117.305 982.213,-116.712 982.213,-116.712 982.213,-116.712 977.248,-117.305 981.68,-112.244 972.284,-117.898 972.284,-117.898"/>
</g>
<!-- EyeColor -->
<g id="node3" class="node"><title>EyeColor</title>
<ellipse fill="none" stroke="black" cx="55" cy="-223" rx="55.1543" ry="18.3848"/>
<text text-anchor="middle" x="55" y="-219.4" font-family="Times Roman,serif" font-size="14.00">EyeColor</text>
</g>
<!-- EyeColor&#45;&gt;Contact -->
<g id="edge6" class="edge"><title>EyeColor&#45;&gt;Contact</title>
<path fill="none" stroke="black" d="M103.209,-208.194C108.519,-206.71 113.862,-205.281 119,-204 240.447,-173.715 270.877,-164.125 395,-148 605,-120.718 856.696,-113.547 969.787,-111.666"/>
<ellipse fill="none" stroke="black" cx="99.3264" cy="-209.299" rx="4.00001" ry="4.00001"/>
<polygon fill="black" stroke="black" points="969.969,-111.664 980.039,-116.005 974.968,-111.585 979.968,-111.505 979.968,-111.505 979.968,-111.505 974.968,-111.585 979.896,-107.006 969.969,-111.664 969.969,-111.664"/>
</g>
<!-- Alias -->
<g id="node4" class="node"><title>Alias</title>
<ellipse fill="none" stroke="black" cx="1164" cy="-479" rx="34.1461" ry="18.3848"/>
<text text-anchor="middle" x="1164" y="-475.4" font-family="Times Roman,serif" font-size="14.00">Alias</text>
</g>
<!-- Relationship -->
<g id="node5" class="node"><title>Relationship</title>
<ellipse fill="none" stroke="black" cx="1241" cy="-19" rx="70.9184" ry="18.3848"/>
<text text-anchor="middle" x="1241" y="-15.4" font-family="Times Roman,serif" font-size="14.00">Relationship</text>
</g>
<!-- CallForService -->
<g id="node6" class="node"><title>CallForService</title>
<ellipse fill="none" stroke="black" cx="1296" cy="-479" rx="80.1095" ry="18.3848"/>
<text text-anchor="middle" x="1296" y="-475.4" font-family="Times Roman,serif" font-size="14.00">CallForService</text>
</g>
<!-- Country -->
<g id="node7" class="node"><title>Country</title>
<ellipse fill="none" stroke="black" cx="1061" cy="-479" rx="51.1176" ry="18.3848"/>
<text text-anchor="middle" x="1061" y="-475.4" font-family="Times Roman,serif" font-size="14.00">Country</text>
</g>
<!-- State -->
<g id="node24" class="node"><title>State</title>
<ellipse fill="none" stroke="black" cx="1061" cy="-375" rx="38.1838" ry="18.3848"/>
<text text-anchor="middle" x="1061" y="-371.4" font-family="Times Roman,serif" font-size="14.00">State</text>
</g>
<!-- Country&#45;&gt;State -->
<g id="edge10" class="edge"><title>Country&#45;&gt;State</title>
<path fill="none" stroke="black" d="M1061,-451.926C1061,-437.224 1061,-419.041 1061,-404.044"/>
<ellipse fill="none" stroke="black" cx="1061" cy="-456.407" rx="4" ry="4"/>
<polygon fill="black" stroke="black" points="1061,-403.783 1065.5,-393.783 1061,-398.783 1061,-393.783 1061,-393.783 1061,-393.783 1061,-398.783 1056.5,-393.783 1061,-403.783 1061,-403.783"/>
</g>
<!-- RelationshipType -->
<g id="node8" class="node"><title>RelationshipType</title>
<ellipse fill="none" stroke="black" cx="1476" cy="-167" rx="92.839" ry="18.3848"/>
<text text-anchor="middle" x="1476" y="-163.4" font-family="Times Roman,serif" font-size="14.00">RelationshipType</text>
</g>
<!-- RelationshipType&#45;&gt;Relationship -->
<g id="edge12" class="edge"><title>RelationshipType&#45;&gt;Relationship</title>
<path fill="none" stroke="black" d="M1452.6,-142.531C1427.85,-117.829 1386.68,-79.9946 1345,-56 1331.1,-47.9995 1315.18,-41.2763 1300.04,-35.85"/>
<ellipse fill="none" stroke="black" cx="1455.72" cy="-145.671" rx="4.00002" ry="4.00002"/>
<polygon fill="black" stroke="black" points="1299.69,-35.7287 1291.7,-28.2165 1294.96,-34.0999 1290.23,-32.471 1290.23,-32.471 1290.23,-32.471 1294.96,-34.0999 1288.77,-36.7256 1299.69,-35.7287 1299.69,-35.7287"/>
</g>
<!-- PropertyType -->
<g id="node9" class="node"><title>PropertyType</title>
<ellipse fill="none" stroke="black" cx="322" cy="-223" rx="75.8684" ry="18.3848"/>
<text text-anchor="middle" x="322" y="-219.4" font-family="Times Roman,serif" font-size="14.00">PropertyType</text>
</g>
<!-- Gender -->
<g id="node10" class="node"><title>Gender</title>
<ellipse fill="none" stroke="black" cx="952" cy="-223" rx="48.0833" ry="18.3848"/>
<text text-anchor="middle" x="952" y="-219.4" font-family="Times Roman,serif" font-size="14.00">Gender</text>
</g>
<!-- Gender&#45;&gt;Contact -->
<g id="edge18" class="edge"><title>Gender&#45;&gt;Contact</title>
<path fill="none" stroke="black" d="M969.236,-198.251C981.843,-180.148 998.914,-155.636 1011.75,-137.201"/>
<ellipse fill="none" stroke="black" cx="966.818" cy="-201.723" rx="4.00002" ry="4.00002"/>
<polygon fill="black" stroke="black" points="1011.78,-137.156 1021.19,-131.522 1014.64,-133.053 1017.5,-128.95 1017.5,-128.95 1017.5,-128.95 1014.64,-133.053 1013.81,-126.378 1011.78,-137.156 1011.78,-137.156"/>
</g>
<!-- User -->
<g id="node11" class="node"><title>User</title>
<ellipse fill="none" stroke="black" cx="1428" cy="-479" rx="33.9411" ry="18.3848"/>
<text text-anchor="middle" x="1428" y="-475.4" font-family="Times Roman,serif" font-size="14.00">User</text>
</g>
<!-- Search -->
<g id="node12" class="node"><title>Search</title>
<polygon fill="none" stroke="black" points="1544,-497 1480,-497 1480,-461 1544,-461 1544,-497"/>
<text text-anchor="middle" x="1512" y="-475.4" font-family="Times Roman,serif" font-size="14.00">Search</text>
</g>
<!-- HairColor -->
<g id="node13" class="node"><title>HairColor</title>
<ellipse fill="none" stroke="black" cx="1075" cy="-223" rx="56.7776" ry="18.3848"/>
<text text-anchor="middle" x="1075" y="-219.4" font-family="Times Roman,serif" font-size="14.00">HairColor</text>
</g>
<!-- HairColor&#45;&gt;Contact -->
<g id="edge22" class="edge"><title>HairColor&#45;&gt;Contact</title>
<path fill="none" stroke="black" d="M1064.55,-197C1057.55,-179.563 1048.33,-156.619 1041.18,-138.816"/>
<ellipse fill="none" stroke="black" cx="1066.08" cy="-200.794" rx="4.00001" ry="4.00001"/>
<polygon fill="black" stroke="black" points="1041.17,-138.801 1041.62,-127.844 1039.31,-134.162 1037.44,-129.522 1037.44,-129.522 1037.44,-129.522 1039.31,-134.162 1033.27,-131.2 1041.17,-138.801 1041.17,-138.801"/>
</g>
<!-- Race -->
<g id="node14" class="node"><title>Race</title>
<ellipse fill="none" stroke="black" cx="1301" cy="-223" rx="34.8574" ry="18.3848"/>
<text text-anchor="middle" x="1301" y="-219.4" font-family="Times Roman,serif" font-size="14.00">Race</text>
</g>
<!-- Race&#45;&gt;Contact -->
<g id="edge26" class="edge"><title>Race&#45;&gt;Contact</title>
<path fill="none" stroke="black" d="M1266.03,-207.828C1262.98,-206.526 1259.94,-205.235 1257,-204 1193.23,-177.171 1118.99,-146.944 1073.24,-128.434"/>
<ellipse fill="none" stroke="black" cx="1269.9" cy="-209.486" rx="4.00002" ry="4.00002"/>
<polygon fill="black" stroke="black" points="1073.2,-128.416 1065.61,-120.496 1068.56,-126.542 1063.93,-124.667 1063.93,-124.667 1063.93,-124.667 1068.56,-126.542 1062.24,-128.839 1073.2,-128.416 1073.2,-128.416"/>
</g>
<!-- VehicleMake -->
<g id="node15" class="node"><title>VehicleMake</title>
<ellipse fill="none" stroke="black" cx="487" cy="-223" rx="70.9184" ry="18.3848"/>
<text text-anchor="middle" x="487" y="-219.4" font-family="Times Roman,serif" font-size="14.00">VehicleMake</text>
</g>
<!-- Report -->
<g id="node16" class="node"><title>Report</title>
<polygon fill="none" stroke="black" points="1624,-497 1562,-497 1562,-461 1624,-461 1624,-497"/>
<text text-anchor="middle" x="1593" y="-475.4" font-family="Times Roman,serif" font-size="14.00">Report</text>
</g>
<!-- ContactType -->
<g id="node18" class="node"><title>ContactType</title>
<ellipse fill="none" stroke="black" cx="1426" cy="-223" rx="72.1249" ry="18.3848"/>
<text text-anchor="middle" x="1426" y="-219.4" font-family="Times Roman,serif" font-size="14.00">ContactType</text>
</g>
<!-- ContactType&#45;&gt;Contact -->
<g id="edge32" class="edge"><title>ContactType&#45;&gt;Contact</title>
<path fill="none" stroke="black" d="M1373.37,-205.941C1323.93,-190.142 1247.76,-166.383 1181,-148 1148.53,-139.059 1111.83,-130.043 1082.75,-123.15"/>
<ellipse fill="none" stroke="black" cx="1377.26" cy="-207.187" rx="4.00001" ry="4.00001"/>
<polygon fill="black" stroke="black" points="1082.53,-123.099 1073.83,-116.424 1077.67,-121.951 1072.8,-120.804 1072.8,-120.804 1072.8,-120.804 1077.67,-121.951 1071.77,-125.184 1082.53,-123.099 1082.53,-123.099"/>
</g>
<!-- City -->
<g id="node19" class="node"><title>City</title>
<ellipse fill="none" stroke="black" cx="1743" cy="-223" rx="31.1127" ry="18.3848"/>
<text text-anchor="middle" x="1743" y="-219.4" font-family="Times Roman,serif" font-size="14.00">City</text>
</g>
<!-- Code -->
<g id="node20" class="node"><title>Code</title>
<ellipse fill="none" stroke="black" cx="852" cy="-299" rx="36.0624" ry="18.3848"/>
<text text-anchor="middle" x="852" y="-295.4" font-family="Times Roman,serif" font-size="14.00">Code</text>
</g>
<!-- Code&#45;&gt;EyeColor -->
<g id="edge8" class="edge"><title>Code&#45;&gt;EyeColor</title>
<path fill="none" stroke="black" d="M816.072,-297.213C688.163,-290.693 255.333,-267.245 119,-242 110.908,-240.502 102.382,-238.373 94.285,-236.079"/>
</g>
<!-- Code&#45;&gt;PropertyType -->
<g id="edge16" class="edge"><title>Code&#45;&gt;PropertyType</title>
<path fill="none" stroke="black" d="M816.356,-295.566C740.644,-288.024 558.324,-268.546 407,-242 397.17,-240.276 386.759,-238.178 376.72,-236.013"/>
</g>
<!-- Code&#45;&gt;Gender -->
<g id="edge20" class="edge"><title>Code&#45;&gt;Gender</title>
<path fill="none" stroke="black" d="M872.236,-283.62C889.015,-270.868 912.825,-252.773 930.058,-239.676"/>
</g>
<!-- Code&#45;&gt;HairColor -->
<g id="edge24" class="edge"><title>Code&#45;&gt;HairColor</title>
<path fill="none" stroke="black" d="M882.075,-288.75C921.783,-275.218 991.784,-251.361 1035.66,-236.408"/>
</g>
<!-- Code&#45;&gt;Race -->
<g id="edge28" class="edge"><title>Code&#45;&gt;Race</title>
<path fill="none" stroke="black" d="M887.869,-297.175C959.331,-292.84 1124.04,-279.333 1257,-242 1262.93,-240.336 1269.11,-238.046 1274.89,-235.631"/>
</g>
<!-- Code&#45;&gt;VehicleMake -->
<g id="edge30" class="edge"><title>Code&#45;&gt;VehicleMake</title>
<path fill="none" stroke="black" d="M818.137,-292.634C764.667,-282.49 657.455,-261.78 567,-242 557.935,-240.018 548.316,-237.817 539.009,-235.637"/>
</g>
<!-- VehicleColor -->
<g id="node23" class="node"><title>VehicleColor</title>
<ellipse fill="none" stroke="black" cx="647" cy="-223" rx="70.9184" ry="18.3848"/>
<text text-anchor="middle" x="647" y="-219.4" font-family="Times Roman,serif" font-size="14.00">VehicleColor</text>
</g>
<!-- Code&#45;&gt;VehicleColor -->
<g id="edge36" class="edge"><title>Code&#45;&gt;VehicleColor</title>
<path fill="none" stroke="black" d="M822.628,-288.111C787.312,-275.018 727.826,-252.965 687.998,-238.199"/>
</g>
<!-- VehicleModel -->
<g id="node26" class="node"><title>VehicleModel</title>
<ellipse fill="none" stroke="black" cx="811" cy="-223" rx="74.9533" ry="18.3848"/>
<text text-anchor="middle" x="811" y="-219.4" font-family="Times Roman,serif" font-size="14.00">VehicleModel</text>
</g>
<!-- Code&#45;&gt;VehicleModel -->
<g id="edge42" class="edge"><title>Code&#45;&gt;VehicleModel</title>
<path fill="none" stroke="black" d="M842.284,-280.989C835.843,-269.05 827.416,-253.43 820.931,-241.41"/>
</g>
<!-- Offense -->
<g id="node29" class="node"><title>Offense</title>
<ellipse fill="none" stroke="black" cx="1199" cy="-223" rx="48.9975" ry="18.3848"/>
<text text-anchor="middle" x="1199" y="-219.4" font-family="Times Roman,serif" font-size="14.00">Offense</text>
</g>
<!-- Code&#45;&gt;Offense -->
<g id="edge62" class="edge"><title>Code&#45;&gt;Offense</title>
<path fill="none" stroke="black" d="M886.562,-293.584C941.087,-284.728 1050.21,-265.73 1141,-242 1148.07,-240.151 1155.55,-237.919 1162.69,-235.644"/>
</g>
<!-- StaticData -->
<g id="node21" class="node"><title>StaticData</title>
<ellipse fill="none" stroke="black" cx="1705" cy="-479" rx="63.1385" ry="18.3848"/>
<text text-anchor="middle" x="1705" y="-475.4" font-family="Times Roman,serif" font-size="14.00">StaticData</text>
</g>
<!-- Type -->
<g id="node22" class="node"><title>Type</title>
<ellipse fill="none" stroke="black" cx="1500" cy="-299" rx="33.9411" ry="18.3848"/>
<text text-anchor="middle" x="1500" y="-295.4" font-family="Times Roman,serif" font-size="14.00">Type</text>
</g>
<!-- Type&#45;&gt;RelationshipType -->
<g id="edge14" class="edge"><title>Type&#45;&gt;RelationshipType</title>
<path fill="none" stroke="black" d="M1505.75,-280.527C1510.85,-260.921 1516.21,-229.334 1507,-204 1504.54,-197.227 1500.23,-190.829 1495.6,-185.318"/>
</g>
<!-- Type&#45;&gt;ContactType -->
<g id="edge34" class="edge"><title>Type&#45;&gt;ContactType</title>
<path fill="none" stroke="black" d="M1483.94,-282.509C1472.04,-270.285 1455.83,-253.634 1443.58,-241.053"/>
</g>
<!-- State&#45;&gt;Code -->
<g id="edge40" class="edge"><title>State&#45;&gt;Code</title>
<path fill="none" stroke="black" d="M1022.59,-361.034C985.256,-347.457 928.826,-326.937 891.217,-313.261"/>
<ellipse fill="none" stroke="black" cx="1026.4" cy="-362.419" rx="4.00001" ry="4.00001"/>
<polygon fill="black" stroke="black" points="891.01,-313.185 883.15,-305.539 886.311,-311.477 881.612,-309.768 881.612,-309.768 881.612,-309.768 886.311,-311.477 880.074,-313.997 891.01,-313.185 891.01,-313.185"/>
</g>
<!-- County -->
<g id="node27" class="node"><title>County</title>
<ellipse fill="none" stroke="black" cx="1624" cy="-299" rx="46.8775" ry="18.3848"/>
<text text-anchor="middle" x="1624" y="-295.4" font-family="Times Roman,serif" font-size="14.00">County</text>
</g>
<!-- State&#45;&gt;County -->
<g id="edge38" class="edge"><title>State&#45;&gt;County</title>
<path fill="none" stroke="black" d="M1106.69,-371.326C1192.58,-364.036 1383.81,-345.991 1543,-318 1553.35,-316.18 1564.36,-313.86 1574.82,-311.472"/>
<ellipse fill="none" stroke="black" cx="1102.69" cy="-371.662" rx="4" ry="4"/>
<polygon fill="black" stroke="black" points="1574.9,-311.453 1585.66,-313.556 1579.76,-310.313 1584.63,-309.174 1584.63,-309.174 1584.63,-309.174 1579.76,-310.313 1583.61,-304.793 1574.9,-311.453 1574.9,-311.453"/>
</g>
<!-- StreetName -->
<g id="node25" class="node"><title>StreetName</title>
<ellipse fill="none" stroke="black" cx="1624" cy="-223" rx="70.2092" ry="18.3848"/>
<text text-anchor="middle" x="1624" y="-219.4" font-family="Times Roman,serif" font-size="14.00">StreetName</text>
</g>
<!-- County&#45;&gt;City -->
<g id="edge44" class="edge"><title>County&#45;&gt;City</title>
<path fill="none" stroke="black" d="M1655.77,-278.708C1673.53,-267.366 1695.54,-253.314 1713,-242.16"/>
<ellipse fill="none" stroke="black" cx="1652.32" cy="-280.915" rx="4.00002" ry="4.00002"/>
<polygon fill="black" stroke="black" points="1713.24,-242.004 1724.09,-240.414 1717.46,-239.313 1721.67,-236.622 1721.67,-236.622 1721.67,-236.622 1717.46,-239.313 1719.25,-232.829 1713.24,-242.004 1713.24,-242.004"/>
</g>
<!-- County&#45;&gt;StreetName -->
<g id="edge46" class="edge"><title>County&#45;&gt;StreetName</title>
<path fill="none" stroke="black" d="M1624,-272.073C1624,-265.449 1624,-258.332 1624,-251.63"/>
<ellipse fill="none" stroke="black" cx="1624" cy="-276.213" rx="4" ry="4"/>
<polygon fill="black" stroke="black" points="1624,-251.57 1628.5,-241.57 1624,-246.57 1624,-241.57 1624,-241.57 1624,-241.57 1624,-246.57 1619.5,-241.57 1624,-251.57 1624,-251.57"/>
</g>
<!-- Contact&#45;&gt;Relationship -->
<g id="edge54" class="edge"><title>Contact&#45;&gt;Relationship</title>
<path fill="none" stroke="black" d="M1058.03,-88.9232C1077.38,-73.6947 1099.69,-56.1555 1100,-56 1122.11,-45.0098 1147.85,-37.0225 1171.23,-31.3455"/>
<ellipse fill="none" stroke="black" cx="1054.76" cy="-91.4964" rx="4.00002" ry="4.00002"/>
<polygon fill="black" stroke="black" points="1171.36,-31.3172 1182.12,-33.435 1176.23,-30.1846 1181.1,-29.0519 1181.1,-29.0519 1181.1,-29.0519 1176.23,-30.1846 1180.08,-24.6689 1171.36,-31.3172 1171.36,-31.3172"/>
<text text-anchor="middle" x="1159.5" y="-61.4" font-family="Times Roman,serif" font-size="14.00">relationships_out</text>
</g>
<!-- Contact&#45;&gt;Relationship -->
<g id="edge58" class="edge"><title>Contact&#45;&gt;Relationship</title>
<path fill="none" stroke="black" d="M1087.02,-105.84C1135.13,-100.427 1199.22,-90.3824 1219,-74 1227.11,-67.2805 1232.25,-57.134 1235.5,-47.3783"/>
<ellipse fill="none" stroke="black" cx="1082.82" cy="-106.299" rx="4" ry="4"/>
<polygon fill="black" stroke="black" points="1235.57,-47.1465 1242.59,-38.7208 1236.91,-42.3299 1238.25,-37.5132 1238.25,-37.5132 1238.25,-37.5132 1236.91,-42.3299 1233.92,-36.3057 1235.57,-47.1465 1235.57,-47.1465"/>
<text text-anchor="middle" x="1286.5" y="-61.4" font-family="Times Roman,serif" font-size="14.00">relationships_in</text>
</g>
<!-- Contact&#45;&gt;Location -->
<g id="edge48" class="edge"><title>Contact&#45;&gt;Location</title>
<path fill="none" stroke="black" d="M980.252,-98.5966C910.853,-81.2939 785.509,-50.0429 714.272,-32.2819"/>
<ellipse fill="none" stroke="black" cx="984.507" cy="-99.6576" rx="4.00001" ry="4.00001"/>
<polygon fill="black" stroke="black" points="713.87,-32.1818 705.256,-25.3962 709.019,-30.9722 704.167,-29.7626 704.167,-29.7626 704.167,-29.7626 709.019,-30.9722 703.079,-34.1289 713.87,-32.1818 713.87,-32.1818"/>
</g>
<!-- Contact&#45;&gt;Contact -->
<g id="edge56" class="edge"><title>Contact&#45;&gt;Contact</title>
<path fill="none" stroke="black" d="M1089.02,-114.454C1094.53,-113.743 1098,-112.592 1098,-111 1098,-109.408 1094.53,-108.257 1089.02,-107.546"/>
<polygon fill="black" stroke="black" points="1088.87,-114.464 1078.57,-110.72 1083.89,-114.836 1078.9,-115.207 1078.9,-115.207 1078.9,-115.207 1083.89,-114.836 1079.23,-119.695 1088.87,-114.464 1088.87,-114.464"/>
<polygon fill="black" stroke="black" points="1088.87,-107.536 1079.23,-102.305 1083.89,-107.164 1078.9,-106.793 1078.9,-106.793 1078.9,-106.793 1083.89,-107.164 1078.57,-111.28 1088.87,-107.536 1088.87,-107.536"/>
<text text-anchor="middle" x="1154" y="-107.4" font-family="Times Roman,serif" font-size="14.00">relationship_out</text>
</g>
<!-- Contact&#45;&gt;Contact -->
<g id="edge60" class="edge"><title>Contact&#45;&gt;Contact</title>
<path fill="none" stroke="black" d="M1076.32,-125.282C1130.98,-132.922 1210,-128.162 1210,-111 1210,-93.8382 1130.98,-89.0775 1076.32,-96.7181"/>
<polygon fill="black" stroke="black" points="1076.3,-125.279 1067.13,-119.267 1071.37,-124.495 1066.43,-123.711 1066.43,-123.711 1066.43,-123.711 1071.37,-124.495 1065.72,-128.156 1076.3,-125.279 1076.3,-125.279"/>
<polygon fill="black" stroke="black" points="1076.3,-96.7213 1065.72,-93.8445 1071.37,-97.5051 1066.43,-98.2889 1066.43,-98.2889 1066.43,-98.2889 1071.37,-97.5051 1067.13,-102.733 1076.3,-96.7213 1076.3,-96.7213"/>
<text text-anchor="middle" x="1261" y="-107.4" font-family="Times Roman,serif" font-size="14.00">relationship_in</text>
</g>
<!-- Addres -->
<g id="node55" class="node"><title>Addres</title>
<ellipse fill="none" stroke="black" cx="938" cy="-19" rx="44.7575" ry="18.3848"/>
<text text-anchor="middle" x="938" y="-15.4" font-family="Times Roman,serif" font-size="14.00">Addres</text>
</g>
<!-- Contact&#45;&gt;Addres -->
<g id="edge50" class="edge"><title>Contact&#45;&gt;Addres</title>
<path fill="none" stroke="black" d="M983.945,-93.8415C974.408,-88.6214 965.113,-82.0697 958,-74 951.389,-66.4992 946.905,-56.6381 943.89,-47.3395"/>
<polygon fill="black" stroke="black" points="984.166,-93.9524 991.079,-102.465 988.633,-96.1984 993.1,-98.4444 993.1,-98.4444 993.1,-98.4444 988.633,-96.1984 995.122,-94.424 984.166,-93.9524 984.166,-93.9524"/>
<polygon fill="black" stroke="black" points="943.862,-47.238 945.497,-36.3947 942.513,-42.4234 941.164,-37.6088 941.164,-37.6088 941.164,-37.6088 942.513,-42.4234 936.831,-38.8229 943.862,-47.238 943.862,-47.238"/>
<text text-anchor="middle" x="992" y="-61.4" font-family="Times Roman,serif" font-size="14.00">addresses</text>
</g>
<!-- Alia -->
<g id="node57" class="node"><title>Alia</title>
<ellipse fill="none" stroke="black" cx="1030" cy="-19" rx="29.1951" ry="18.3848"/>
<text text-anchor="middle" x="1030" y="-15.4" font-family="Times Roman,serif" font-size="14.00">Alia</text>
</g>
<!-- Contact&#45;&gt;Alia -->
<g id="edge52" class="edge"><title>Contact&#45;&gt;Alia</title>
<path fill="none" stroke="black" d="M1030,-84.029C1030,-72.5994 1030,-59.2671 1030,-47.6601"/>
<ellipse fill="none" stroke="black" cx="1030" cy="-88.3824" rx="4" ry="4"/>
<polygon fill="black" stroke="black" points="1030,-47.5899 1034.5,-37.5898 1030,-42.5899 1030,-37.5899 1030,-37.5899 1030,-37.5899 1030,-42.5899 1025.5,-37.5899 1030,-47.5899 1030,-47.5899"/>
<text text-anchor="middle" x="1053" y="-61.4" font-family="Times Roman,serif" font-size="14.00">aliases</text>
</g>
</g>
</svg>
